<svg width="1044" height="1014" viewBox="0 0 1044 1014" fill="none" xmlns="http://www.w3.org/2000/svg">
<path d="M147.236 115.952V134.608H127.308V191H103.776V134.608H84.06V115.952H147.236ZM165.49 126.446C161.392 126.446 158.106 125.351 155.632 123.16C153.159 120.969 151.922 118.213 151.922 114.892C151.922 111.5 153.159 108.709 155.632 106.518C158.106 104.257 161.392 103.126 165.49 103.126C169.518 103.126 172.769 104.257 175.242 106.518C177.716 108.709 178.952 111.5 178.952 114.892C178.952 118.213 177.716 120.969 175.242 123.16C172.769 125.351 169.518 126.446 165.49 126.446ZM177.15 131.216V191H153.618V131.216H177.15ZM184.599 161.108C184.599 154.889 185.871 149.483 188.415 144.89C191.029 140.226 194.633 136.657 199.227 134.184C203.891 131.711 209.191 130.474 215.127 130.474C222.9 130.474 229.437 132.665 234.737 137.046C240.107 141.427 243.499 147.505 244.913 155.278H220.003C219.084 152.169 217.282 150.614 214.597 150.614C212.689 150.614 211.169 151.497 210.039 153.264C208.979 155.031 208.449 157.645 208.449 161.108C208.449 164.571 208.979 167.185 210.039 168.952C211.169 170.719 212.689 171.602 214.597 171.602C217.282 171.602 219.084 170.047 220.003 166.938H244.913C243.499 174.711 240.107 180.789 234.737 185.17C229.437 189.551 222.9 191.742 215.127 191.742C209.191 191.742 203.891 190.505 199.227 188.032C194.633 185.559 191.029 182.025 188.415 177.432C185.871 172.768 184.599 167.327 184.599 161.108Z" fill="white"/>
<path d="M437.236 447.952V466.608H417.308V523H393.776V466.608H374.06V447.952H437.236ZM440.438 493.108C440.438 486.819 441.498 481.377 443.618 476.784C445.809 472.12 448.777 468.587 452.522 466.184C456.268 463.711 460.472 462.474 465.136 462.474C469.023 462.474 472.38 463.287 475.206 464.912C478.033 466.467 480.188 468.622 481.672 471.378V463.216H505.098V523H481.672V514.838C480.188 517.594 478.033 519.785 475.206 521.41C472.38 522.965 469.023 523.742 465.136 523.742C460.472 523.742 456.268 522.541 452.522 520.138C448.777 517.665 445.809 514.131 443.618 509.538C441.498 504.874 440.438 499.397 440.438 493.108ZM481.672 493.108C481.672 489.928 480.86 487.455 479.234 485.688C477.609 483.921 475.524 483.038 472.98 483.038C470.436 483.038 468.352 483.921 466.726 485.688C465.101 487.455 464.288 489.928 464.288 493.108C464.288 496.288 465.101 498.761 466.726 500.528C468.352 502.295 470.436 503.178 472.98 503.178C475.524 503.178 477.609 502.295 479.234 500.528C480.86 498.761 481.672 496.288 481.672 493.108ZM512.485 493.108C512.485 486.889 513.757 481.483 516.301 476.89C518.916 472.226 522.52 468.657 527.113 466.184C531.777 463.711 537.077 462.474 543.013 462.474C550.787 462.474 557.323 464.665 562.623 469.046C567.994 473.427 571.386 479.505 572.799 487.278H547.889C546.971 484.169 545.169 482.614 542.483 482.614C540.575 482.614 539.056 483.497 537.925 485.264C536.865 487.031 536.335 489.645 536.335 493.108C536.335 496.571 536.865 499.185 537.925 500.952C539.056 502.719 540.575 503.602 542.483 503.602C545.169 503.602 546.971 502.047 547.889 498.938H572.799C571.386 506.711 567.994 512.789 562.623 517.17C557.323 521.551 550.787 523.742 543.013 523.742C537.077 523.742 531.777 522.505 527.113 520.032C522.52 517.559 518.916 514.025 516.301 509.432C513.757 504.768 512.485 499.327 512.485 493.108Z" fill="white"/>
<path d="M747.236 807.952V826.608H727.308V883H703.776V826.608H684.06V807.952H747.236ZM782.026 883.742C776.02 883.742 770.614 882.505 765.808 880.032C761.003 877.559 757.222 874.025 754.466 869.432C751.781 864.768 750.438 859.327 750.438 853.108C750.438 846.889 751.781 841.483 754.466 836.89C757.222 832.226 761.003 828.657 765.808 826.184C770.614 823.711 776.02 822.474 782.026 822.474C788.033 822.474 793.439 823.711 798.244 826.184C803.05 828.657 806.795 832.226 809.48 836.89C812.236 841.483 813.614 846.889 813.614 853.108C813.614 859.327 812.236 864.768 809.48 869.432C806.795 874.025 803.05 877.559 798.244 880.032C793.439 882.505 788.033 883.742 782.026 883.742ZM782.026 863.39C784.217 863.39 786.054 862.542 787.538 860.846C789.022 859.079 789.764 856.5 789.764 853.108C789.764 849.716 789.022 847.172 787.538 845.476C786.054 843.709 784.217 842.826 782.026 842.826C779.836 842.826 777.998 843.709 776.514 845.476C775.03 847.172 774.288 849.716 774.288 853.108C774.288 856.5 774.995 859.079 776.408 860.846C777.892 862.542 779.765 863.39 782.026 863.39ZM878.883 852.578C878.883 854.203 878.777 855.758 878.565 857.242H840.723C841.076 862.401 843.232 864.98 847.189 864.98C849.733 864.98 851.57 863.814 852.701 861.482H877.611C876.763 865.722 874.961 869.538 872.205 872.93C869.52 876.251 866.092 878.901 861.923 880.88C857.824 882.788 853.302 883.742 848.355 883.742C842.419 883.742 837.119 882.505 832.455 880.032C827.862 877.559 824.258 874.025 821.643 869.432C819.099 864.768 817.827 859.327 817.827 853.108C817.827 846.889 819.099 841.483 821.643 836.89C824.258 832.226 827.862 828.657 832.455 826.184C837.119 823.711 842.419 822.474 848.355 822.474C854.291 822.474 859.556 823.711 864.149 826.184C868.813 828.587 872.417 832.049 874.961 836.572C877.576 841.095 878.883 846.43 878.883 852.578ZM855.033 846.96C855.033 844.981 854.397 843.497 853.125 842.508C851.853 841.448 850.263 840.918 848.355 840.918C844.186 840.918 841.748 842.932 841.041 846.96H855.033Z" fill="white"/>
<path d="M-22.6364 312H1041M-129 702H934.636M807 0L530.455 1014M381.545 0L105 1014" stroke="#093D57" stroke-width="4.5" stroke-linecap="round" stroke-linejoin="round"/>
<path d="M79 59L882 944" stroke="#FF891D" stroke-width="8" stroke-linecap="round"/>
</svg>
