<svg width="63" height="63" viewBox="0 0 63 63" fill="none" xmlns="http://www.w3.org/2000/svg">
<path d="M9.94242 3.16228C13.0668 0.0356336 18.1347 0.0353115 21.2595 3.16156L59.8478 41.768C62.97 44.8916 62.9703 49.9543 59.8486 53.0783L53.0941 59.8377C49.9697 62.9644 44.9018 62.9647 41.777 59.8384L3.18864 21.232C0.0664988 18.1084 0.0661705 13.0457 3.18791 9.92168L9.94242 3.16228Z" fill="#FF891D"/>
<path d="M59.8025 12.1471C62.7807 15.4083 62.5528 20.4659 59.2934 23.446L20.6415 58.7863C17.3794 61.769 12.3166 61.5408 9.3359 58.2769L2.89155 51.2203C-0.086638 47.9591 0.141229 42.9015 3.40062 39.9214L42.0526 4.58113C45.3147 1.59849 50.3775 1.8266 53.3582 5.0905L59.8025 12.1471Z" fill="#FF891D"/>
</svg>
